# xmcd
#
# Track frame offsets:
#	150
#	15252
#	33117
#	47266
#	57550
#	70590
#	84919
#	108404
#	116886
#	131243
#	153355
#	166787
#	176719
#	194831
#	205220
#	218360
#
# Disc length: 3075 seconds
#
# Revision: 0
# Processed by: cddbd v1.5.1PL0 Copyright (c) Steve Scherf et al.
# Submitted via: audiograbber 1.83.01
#
DISCID=d10c0110
DTITLE=Simon @ Garfunkel - Gold
DYEAR=1997
DGENRE=
TTITLE0=The Sounds Of Silence
TTITLE1=Mrs. Robinson
TTITLE2=Kathy's Songm
TTITLE3=Wednesday morning 3 A. M.
TTITLE4=The Times They Are Changing
TTITLE5=Scarborough Fair
TTITLE6=The Boxer
TTITLE7=Song For The Asking
TTITLE8=If I Could ( El Condor Pasa)
TTITLE9=Bridge Over Troubled Water
TTITLE10=Cecilia
TTITLE11=Last Night I Had The Strangest Dream
TTITLE12=The Only Living Boy In New York
TTITLE13=Anji
TTITLE14=I Am A Rock
TTITLE15=Bleeker Street
EXTD=
EXTT0=
EXTT1=
EXTT2=
EXTT3=
EXTT4=
EXTT5=
EXTT6=
EXTT7=
EXTT8=
EXTT9=
EXTT10=
EXTT11=
EXTT12=
EXTT13=
EXTT14=
EXTT15=
PLAYORDER=
